<?xml version="1.0" encoding="UTF-8" standalone="no"?>
<!-- Created with Inkscape (http://www.inkscape.org/) -->

<svg
   version="1.1"
   id="svg1"
   width="475"
   height="100"
   viewBox="0 0 475 100"
   sodipodi:docname="logo_nombre.svg"
   xml:space="preserve"
   inkscape:version="1.4 (86a8ad7, 2024-10-11)"
   xmlns:inkscape="http://www.inkscape.org/namespaces/inkscape"
   xmlns:sodipodi="http://sodipodi.sourceforge.net/DTD/sodipodi-0.dtd"
   xmlns="http://www.w3.org/2000/svg"
   xmlns:svg="http://www.w3.org/2000/svg"><defs
     id="defs1"><inkscape:perspective
       sodipodi:type="inkscape:persp3d"
       inkscape:vp_x="0 : -49 : 1"
       inkscape:vp_y="0 : 1000 : 0"
       inkscape:vp_z="475 : -49 : 1"
       inkscape:persp3d-origin="237.5 : -99 : 1"
       id="perspective19" /></defs><sodipodi:namedview
     id="namedview1"
     pagecolor="#ffffff"
     bordercolor="#000000"
     borderopacity="0.25"
     inkscape:showpageshadow="2"
     inkscape:pageopacity="0.0"
     inkscape:pagecheckerboard="0"
     inkscape:deskcolor="#d1d1d1"
     showgrid="true"
     inkscape:zoom="3.9062499"
     inkscape:cx="276.48001"
     inkscape:cy="67.968002"
     inkscape:window-width="3440"
     inkscape:window-height="1417"
     inkscape:window-x="-8"
     inkscape:window-y="-8"
     inkscape:window-maximized="1"
     inkscape:current-layer="layer1"><inkscape:grid
       id="grid4"
       units="px"
       originx="0"
       originy="0"
       spacingx="1"
       spacingy="1"
       empcolor="#0099e5"
       empopacity="0.30196078"
       color="#0099e5"
       opacity="0.14901961"
       empspacing="5"
       enabled="true"
       visible="true" /></sodipodi:namedview><g
     inkscape:groupmode="layer"
     inkscape:label="Logo"
     id="g1"
     style="display:none"><path
       style="display:none;fill:#d09f48"
       d="m 3.4811153,132.55058 0.053,-14.03778 c 11.4830807,6.21148 57.6067007,27.48248 57.6763207,27.41027 0.30614,-4.93361 -0.28638,-16.16919 -0.13172,-21.11084 L 3.6191753,98.492076 3.6057753,43.549822 C 8.2478156,45.914904 76.395946,78.761866 76.395946,78.761866 l -0.0244,14.98281 c 0,0 -59.17784,-28.110486 -62.54782,-29.564074 l 0.256,21.494004 62.3245,28.023584 0.0154,55.65435 z m 93.4361107,-60.984395 26.327464,61.683445 9.35413,-4.22734 8.90471,-80.622313 13.95559,-6.149354 -12.7193,96.717427 -27.07351,13.40672 L 82.319686,78.500716 Z M 7.4021953,36.838812 78.230706,3.6407744 c 0,0 72.590574,33.2080066 72.755194,33.3748346 0.21943,0.222391 -26.97191,13.584928 -26.97191,13.584928 l -14.45261,-8.201166 14.44267,-6.369203 c 0,0 -45.271444,-21.340592 -45.512354,-21.340592 -0.69807,0 -45.52308,21.934788 -45.29287,22.156688 13.50799,6.735902 43.95159,22.066764 43.95159,22.066764 L 90.931036,52.213512 104.923,59.986561 78.598586,73.628866 Z"
       id="path3"
       sodipodi:nodetypes="cccccccccccccscccccccsccccccccccccc" /></g><g
     inkscape:groupmode="layer"
     id="layer1"
     inkscape:label="Nombre"><path
       style="font-weight:bold;font-size:140px;font-family:Garamond;-inkscape-font-specification:'Garamond Bold';fill:#26344e"
       d="m 56.176758,8.8548431 q 0.683594,2.3242189 1.230469,7.0410159 0.820312,7.041015 0.820312,10.9375 0,1.230469 -0.273437,2.666015 l -0.683594,0.205079 -4.921875,-0.341797 -0.820313,-0.136719 q -3.007812,-9.023438 -6.015625,-12.236328 -5.195312,-5.46875 -12.236328,-5.46875 -6.699219,0 -10.664062,3.554687 -3.896485,3.486328 -3.896485,8.681641 0,4.375 3.896485,8.408203 3.828125,4.033203 16.269531,7.724609 4.169922,1.230469 10.048828,3.964844 5.947266,2.734375 9.023438,5.947266 4.101562,4.238281 5.605468,8.203125 1.572266,3.896484 1.572266,9.77539 0,6.425782 -2.392578,12.646485 -1.298828,3.28125 -4.169922,6.220703 -2.050781,2.050781 -6.357422,4.853516 -4.306641,2.734375 -8.955078,3.964843 -4.580078,1.230469 -11.826172,1.230469 -4.785156,0 -11.416016,-1.367187 L 11.811523,92.936874 Q 8.3935547,91.979843 7.5048828,91.22789 7.1630859,90.954453 6.8896484,89.929062 v -0.751953 q 0,-0.751953 -0.3417968,-9.365235 -0.1367188,-4.443359 -0.1367188,-6.289062 v -2.597656 l 6.2890622,-0.136719 q 3.28125,7.587891 4.238282,9.160156 2.11914,3.486328 4.648437,5.673828 2.597656,2.119141 6.152344,3.417969 3.554687,1.230469 7.724609,1.230469 3.691406,0 8.134766,-1.572266 4.443359,-1.572265 7.109375,-5.126953 2.734375,-3.623047 2.734375,-7.724609 0,-5.058594 -4.716797,-9.365235 Q 45.854492,63.815781 33.276367,59.372421 20.698242,54.929062 15.844727,51.442734 10.991211,47.956406 8.1884766,42.145859 5.3857422,36.266953 5.3857422,30.866562 q 0,-10.869141 7.7929688,-18.457031 7.792969,-7.587891 22.96875,-7.587891 3.28125,0 9.707031,1.1621094 3.896485,0.6835937 10.322266,2.8710937 z M 75.454102,95.397812 v -4.921875 q 1.367187,-0.410156 4.511718,-1.162109 4.44336,-1.09375 6.63086,-2.25586 1.230468,-2.11914 1.230468,-5.878906 l -0.06836,-8.066406 0.136719,-15.585938 -0.06836,-3.691406 q 0.478516,-13.535156 0.478516,-13.945313 l -0.136719,-9.091796 0.205078,-3.691407 -0.341796,-7.792968 -0.06836,-2.939454 q -0.06836,-0.683593 -0.478515,-2.1875 -2.802735,-1.298828 -9.091797,-1.640625 -1.503907,-0.06836 -2.392578,-0.205078 L 75.795898,6.3255463 95.34668,7.1458588 q 3.623047,0.1367187 4.511718,0.1367187 4.033202,0 12.919922,-0.546875 4.99023,-0.3417969 6.28906,-0.4101562 0.0684,1.2988281 0.0684,2.1875 0,1.1621093 -0.13672,3.0078127 -2.73437,0.957031 -6.28906,1.845703 -3.48633,0.820312 -5.74219,1.708984 -0.41015,1.777344 -0.41015,5.126953 0,2.939454 0.20508,4.785157 -0.20508,11.552734 -0.20508,17.773437 l 0.0684,18.046875 -0.20508,9.160156 0.13672,13.671875 -0.0684,2.597657 q 0,0.546875 0.27344,1.572265 4.16992,0.888672 7.58789,1.230469 0.61523,0.06836 4.16992,0.546875 0.27344,2.050781 0.27344,3.417969 0,0.751953 -0.0684,2.324219 -0.88868,0 -1.36719,0.06836 -2.1875,0.136719 -2.5293,0.136719 -0.47851,0 -1.77734,-0.205078 -0.95703,-0.136719 -9.0918,-0.957032 L 91.860352,94.235703 q -3.623047,0 -10.527344,0.683593 -4.511719,0.410157 -5.878906,0.478516 z M 209.30176,8.3079681 q 0.88867,2.0507809 3.62304,11.6894529 1.23047,4.375 1.29883,9.296875 h -6.2207 q -6.5625,-9.296875 -13.53516,-13.330078 -6.97265,-4.101562 -15.58593,-4.101562 -10.59571,0 -17.08985,8.271484 -8.81836,11.210938 -8.81836,31.240234 0,11.621094 1.50391,16.542969 2.46094,7.998047 6.2207,13.056641 2.8711,3.828125 7.51953,6.083984 6.01563,3.076172 12.85157,3.076172 7.51953,0 14.49218,-4.648437 7.04102,-4.716797 13.4668,-14.013672 2.5293,-0.478516 6.63086,-0.546875 -0.27344,2.597656 -0.88867,5.40039 -0.20508,1.09375 -1.57227,8.681641 l -0.61523,2.050781 -0.95703,3.212891 q -4.16993,3.21289 -11.75782,4.853515 -7.51953,1.572266 -18.52539,1.572266 -8.4082,0 -15.92773,-1.572266 -7.45117,-1.572265 -12.7832,-4.990234 -7.79297,-4.921875 -12.23633,-10.664062 -4.44336,-5.742188 -6.63086,-12.509766 -2.11914,-6.767578 -2.11914,-15.175781 0,-20.371094 13.39844,-33.632813 13.46679,-13.2617186 34.3164,-13.2617186 8.47656,0 15.92774,0.8886719 7.51953,0.8203125 14.01367,2.5292968 z m 16.95312,41.6992189 q 0,-8.476563 3.28125,-17.021484 2.39258,-6.152344 6.69922,-11.279297 4.30664,-5.126953 10.80078,-9.091797 6.49414,-4.0332034 13.26172,-5.7421877 6.76758,-1.7773438 15.10742,-1.7773438 14.21875,0 24.67774,5.3320315 10.45898,5.332031 16.47461,14.423828 7.79297,11.826172 7.79297,24.814453 0,19.345703 -13.19336,33.154297 -13.125,13.808594 -36.57227,13.808594 -5.81055,0 -10.86914,-0.751953 -3.82812,-0.546875 -6.69922,-1.503907 -5.19531,-1.708984 -5.81055,-1.982422 -7.45117,-4.238281 -11.96289,-8.68164 -4.51171,-4.44336 -7.65625,-10.048828 -1.70898,-3.144532 -3.89648,-11.347657 -1.43555,-5.263671 -1.43555,-12.304687 z m 46.55274,-38.144531 q -5.94727,0 -10.52735,2.802734 -4.58007,2.734375 -6.90429,6.083984 -3.89649,5.673829 -5.53711,12.441407 -1.64063,6.699218 -1.64063,16.33789 0,5.878907 0.47852,8.408203 0.13672,0.820313 0.41015,2.802735 0.61524,5.058594 1.43555,7.382812 2.93945,8.681641 4.16992,10.732422 2.05078,3.486328 6.08399,6.904297 2.05078,1.777344 5.94726,3.28125 3.89649,1.435547 7.79297,1.435547 7.38281,0 13.67188,-3.417969 6.35742,-3.486328 10.18554,-11.757812 3.82813,-8.271485 3.82813,-21.533203 0,-5.46875 -0.75195,-14.833985 l -0.3418,-1.298828 q -0.20508,-0.546875 -0.6836,-2.802734 -2.52929,-11.210938 -9.70703,-17.089844 -7.10937,-5.878906 -17.91015,-5.878906 z m 52.63672,0.205078 V 6.1888275 q 3.55468,0.068359 4.30664,0.1367188 8.4082,0.9570312 22.08007,0.9570312 2.05079,0 8.33985,-0.4101562 4.51172,-0.3417969 6.76758,-0.6835938 h 4.99023 q 0.13672,4.9902345 0.13672,5.6054685 -6.83594,0.888672 -7.99805,1.16211 -3.00781,0.820312 -4.44336,2.1875 -0.75195,0.751953 -0.75195,1.777343 0,0.751954 0.13672,1.503907 l 2.25586,5.947265 q 2.39258,6.972657 7.92969,18.935547 l 7.79296,17.636719 q 2.25586,5.126953 4.10157,9.707031 l 3.96484,-9.707031 8.13477,-22.558594 1.91406,-4.785156 q 0.3418,-1.025391 0.88867,-2.871094 1.77734,-6.083984 2.93945,-9.228515 1.23047,-3.144532 1.23047,-5.126954 0,-1.298828 -1.29883,-2.255859 -1.98242,-1.503906 -6.49414,-1.914062 -0.95703,-0.273438 -2.52929,-0.410157 -1.57227,-0.205078 -2.80274,-0.478515 -0.41015,-1.3671879 -0.41015,-2.0507816 0,-0.8886719 0.27343,-3.1445313 1.23047,0 7.04102,0.546875 5.81055,0.546875 11.34766,0.546875 5.67382,0 9.70703,-0.4785156 4.0332,-0.546875 6.5625,-0.6152344 v 2.1875 q 0,0.8203125 -0.0684,2.4609379 -8.81836,3.21289 -10.32227,4.375 -0.95703,0.683593 -1.8457,2.255859 -2.59766,4.580078 -7.92969,18.525391 l -8.75,22.626953 q -1.23047,3.28125 -2.73437,6.972656 -1.43555,3.623047 -3.07618,7.998047 -0.34179,1.025391 -3.21289,8.203125 l -0.68359,1.230469 q -3.00781,9.638672 -4.51172,13.330078 -2.73437,0.136719 -3.41797,0.136719 -1.29883,0 -3.62304,-0.136719 -0.75196,-2.050781 -1.50391,-4.169922 -0.75195,-2.119141 -5.81055,-14.833984 l -12.91992,-28.984375 -7.72461,-18.66211 q -5.94726,-12.714844 -6.49414,-13.603515 -1.16211,-1.708985 -2.59766,-2.460938 -1.43554,-0.751953 -5.94726,-1.162109 z m 100.48828,83.330078 v -4.921875 q 1.36718,-0.410156 4.51172,-1.162109 4.44336,-1.09375 6.63086,-2.25586 1.23046,-2.11914 1.23046,-5.878906 l -0.0684,-8.066406 0.13672,-15.585938 -0.0684,-3.691406 q 0.47852,-13.535156 0.47852,-13.945313 l -0.13672,-9.091796 0.20508,-3.691407 -0.3418,-7.792968 -0.0684,-2.939454 q -0.0684,-0.683593 -0.47851,-2.1875 -2.80274,-1.298828 -9.0918,-1.640625 -1.50391,-0.06836 -2.39258,-0.205078 l -0.20508,-6.0156247 19.55079,0.8203125 q 3.62304,0.1367187 4.51171,0.1367187 4.03321,0 12.91993,-0.546875 4.99023,-0.3417969 6.28906,-0.4101562 0.0684,1.2988281 0.0684,2.1875 0,1.1621093 -0.13672,3.0078127 -2.73438,0.957031 -6.28906,1.845703 -3.48633,0.820312 -5.74219,1.708984 -0.41016,1.777344 -0.41016,5.126953 0,2.939454 0.20508,4.785157 -0.20508,11.552734 -0.20508,17.773437 l 0.0684,18.046875 -0.20508,9.160156 0.13672,13.671875 -0.0684,2.597657 q 0,0.546875 0.27344,1.572265 4.16992,0.888672 7.58789,1.230469 0.61524,0.06836 4.16992,0.546875 0.27344,2.050781 0.27344,3.417969 0,0.751953 -0.0684,2.324219 -0.88867,0 -1.36719,0.06836 -2.1875,0.136719 -2.52929,0.136719 -0.47852,0 -1.77735,-0.205078 -0.95703,-0.136719 -9.09179,-0.957032 l -12.09961,-0.136718 q -3.62305,0 -10.52735,0.683593 -4.51172,0.410157 -5.8789,0.478516 z"
       id="text4"
       inkscape:label="SICOVI"
       aria-label="SICOVI" /></g></svg>
