<?xml version="1.0" encoding="UTF-8" standalone="no"?>
<!-- Created with Inkscape (http://www.inkscape.org/) -->

<svg
   version="1.1"
   id="svg1"
   width="475"
   height="276"
   viewBox="0 0 475 276"
   sodipodi:docname="logo.svg"
   xml:space="preserve"
   inkscape:version="1.4 (86a8ad7, 2024-10-11)"
   xmlns:inkscape="http://www.inkscape.org/namespaces/inkscape"
   xmlns:sodipodi="http://sodipodi.sourceforge.net/DTD/sodipodi-0.dtd"
   xmlns="http://www.w3.org/2000/svg"
   xmlns:svg="http://www.w3.org/2000/svg"><defs
     id="defs1"><inkscape:perspective
       sodipodi:type="inkscape:persp3d"
       inkscape:vp_x="0 : 126 : 1"
       inkscape:vp_y="0 : 1000 : 0"
       inkscape:vp_z="475 : 126 : 1"
       inkscape:persp3d-origin="237.5 : 76 : 1"
       id="perspective19" /></defs><sodipodi:namedview
     id="namedview1"
     pagecolor="#ffffff"
     bordercolor="#000000"
     borderopacity="0.25"
     inkscape:showpageshadow="2"
     inkscape:pageopacity="0.0"
     inkscape:pagecheckerboard="0"
     inkscape:deskcolor="#d1d1d1"
     showgrid="false"
     inkscape:zoom="1.9531249"
     inkscape:cx="172.03201"
     inkscape:cy="111.87201"
     inkscape:window-width="3440"
     inkscape:window-height="1417"
     inkscape:window-x="-8"
     inkscape:window-y="-8"
     inkscape:window-maximized="1"
     inkscape:current-layer="layer1"><inkscape:grid
       id="grid4"
       units="px"
       originx="0"
       originy="0"
       spacingx="1"
       spacingy="1"
       empcolor="#0099e5"
       empopacity="0.30196078"
       color="#0099e5"
       opacity="0.14901961"
       empspacing="5"
       enabled="true"
       visible="false" /></sodipodi:namedview><g
     inkscape:groupmode="layer"
     inkscape:label="Logo"
     id="g1"><path
       style="fill:#d09f48"
       d="m 161.511,133.99874 0.053,-14.03778 c 11.48308,6.21148 57.6067,27.48248 57.67632,27.41027 0.30614,-4.93361 -0.28638,-16.16919 -0.13172,-21.11084 l -57.45954,-26.32016 -0.0134,-54.942254 c 4.64204,2.365082 72.79017,35.212044 72.79017,35.212044 l -0.0244,14.98281 c 0,0 -59.17784,-28.110486 -62.54782,-29.564074 l 0.256,21.494004 62.3245,28.02359 0.0154,55.65435 z m 93.43611,-60.984401 26.32746,61.683451 9.35413,-4.22734 8.90471,-80.622319 13.95559,-6.149354 -12.7193,96.717433 -27.07351,13.40672 -33.34662,-73.87406 z M 165.43208,38.286966 236.26059,5.088929 c 0,0 72.59057,33.208006 72.75519,33.374834 0.21943,0.222391 -26.97191,13.584928 -26.97191,13.584928 l -14.45261,-8.201166 14.44267,-6.369203 c 0,0 -45.27144,-21.340592 -45.51235,-21.340592 -0.69807,0 -45.52308,21.934788 -45.29287,22.156688 13.50799,6.735902 43.95159,22.066764 43.95159,22.066764 l 13.78062,-6.699516 13.99196,7.773049 -26.32441,13.642305 z"
       id="path3"
       sodipodi:nodetypes="cccccccccccccscccccccsccccccccccccc" /></g><g
     inkscape:groupmode="layer"
     id="layer1"
     inkscape:label="Nombre"><path
       style="font-weight:bold;font-size:140px;font-family:Garamond;-inkscape-font-specification:'Garamond Bold';fill:#26344e"
       d="m 56.176758,182.42285 q 0.683594,2.32422 1.230469,7.04102 0.820312,7.04101 0.820312,10.9375 0,1.23047 -0.273437,2.66601 l -0.683594,0.20508 -4.921875,-0.3418 -0.820313,-0.13671 q -3.007812,-9.02344 -6.015625,-12.23633 -5.195312,-5.46875 -12.236328,-5.46875 -6.699219,0 -10.664062,3.55468 -3.896485,3.48633 -3.896485,8.68165 0,4.375 3.896485,8.4082 3.828125,4.0332 16.269531,7.72461 4.169922,1.23047 10.048828,3.96484 5.947266,2.73438 9.023438,5.94727 4.101562,4.23828 5.605468,8.20312 1.572266,3.89649 1.572266,9.77539 0,6.42578 -2.392578,12.64649 -1.298828,3.28125 -4.169922,6.2207 -2.050781,2.05078 -6.357422,4.85352 -4.306641,2.73437 -8.955078,3.96484 -4.580078,1.23047 -11.826172,1.23047 -4.785156,0 -11.416016,-1.36719 l -8.203125,-2.39258 Q 8.3935547,265.54785 7.5048828,264.7959 7.1630859,264.52246 6.8896484,263.49707 v -0.75195 q 0,-0.75196 -0.3417968,-9.36524 -0.1367188,-4.44336 -0.1367188,-6.28906 v -2.59766 l 6.2890622,-0.13671 q 3.28125,7.58789 4.238282,9.16015 2.11914,3.48633 4.648437,5.67383 2.597656,2.11914 6.152344,3.41797 3.554687,1.23047 7.724609,1.23047 3.691406,0 8.134766,-1.57227 4.443359,-1.57226 7.109375,-5.12695 2.734375,-3.62305 2.734375,-7.72461 0,-5.05859 -4.716797,-9.36524 -2.871094,-2.66601 -15.449219,-7.10937 -12.578125,-4.44336 -17.43164,-7.92969 -4.853516,-3.48633 -7.6562504,-9.29687 -2.8027344,-5.87891 -2.8027344,-11.2793 0,-10.86914 7.7929688,-18.45703 7.792969,-7.58789 22.96875,-7.58789 3.28125,0 9.707031,1.16211 3.896485,0.68359 10.322266,2.87109 z m 19.277344,86.54297 v -4.92187 q 1.367187,-0.41016 4.511718,-1.16211 4.44336,-1.09375 6.63086,-2.25586 1.230468,-2.11914 1.230468,-5.87891 l -0.06836,-8.06641 0.136719,-15.58593 -0.06836,-3.69141 q 0.478516,-13.53516 0.478516,-13.94531 l -0.136719,-9.0918 0.205078,-3.69141 -0.341796,-7.79296 -0.06836,-2.93946 q -0.06836,-0.68359 -0.478515,-2.1875 -2.802735,-1.29883 -9.091797,-1.64062 -1.503907,-0.0684 -2.392578,-0.20508 l -0.205079,-6.01563 19.550782,0.82032 q 3.623047,0.13672 4.511718,0.13672 4.033202,0 12.919922,-0.54688 4.99023,-0.3418 6.28906,-0.41016 0.0684,1.29883 0.0684,2.1875 0,1.16211 -0.13672,3.00782 -2.73437,0.95703 -6.28906,1.8457 -3.48633,0.82031 -5.74219,1.70898 -0.41015,1.77735 -0.41015,5.12696 0,2.93945 0.20508,4.78515 -0.20508,11.55274 -0.20508,17.77344 l 0.0684,18.04688 -0.20508,9.16015 0.13672,13.67188 -0.0684,2.59765 q 0,0.54688 0.27344,1.57227 4.16992,0.88867 7.58789,1.23047 0.61523,0.0684 4.16992,0.54687 0.27344,2.05078 0.27344,3.41797 0,0.75196 -0.0684,2.32422 -0.88868,0 -1.36719,0.0684 -2.1875,0.13672 -2.5293,0.13672 -0.47851,0 -1.77734,-0.20508 -0.95703,-0.13672 -9.0918,-0.95703 l -12.099608,-0.13672 q -3.623047,0 -10.527344,0.68359 -4.511719,0.41016 -5.878906,0.47852 z M 209.30176,181.87598 q 0.88867,2.05078 3.62304,11.68945 1.23047,4.375 1.29883,9.29687 h -6.2207 q -6.5625,-9.29687 -13.53516,-13.33007 -6.97265,-4.10157 -15.58593,-4.10157 -10.59571,0 -17.08985,8.27149 -8.81836,11.21094 -8.81836,31.24023 0,11.6211 1.50391,16.54297 2.46094,7.99805 6.2207,13.05664 2.8711,3.82813 7.51953,6.08399 6.01563,3.07617 12.85157,3.07617 7.51953,0 14.49218,-4.64844 7.04102,-4.7168 13.4668,-14.01367 2.5293,-0.47852 6.63086,-0.54688 -0.27344,2.59766 -0.88867,5.40039 -0.20508,1.09375 -1.57227,8.68165 l -0.61523,2.05078 -0.95703,3.21289 q -4.16993,3.21289 -11.75782,4.85351 -7.51953,1.57227 -18.52539,1.57227 -8.4082,0 -15.92773,-1.57227 -7.45117,-1.57226 -12.7832,-4.99023 -7.79297,-4.92188 -12.23633,-10.66406 -4.44336,-5.74219 -6.63086,-12.50977 -2.11914,-6.76758 -2.11914,-15.17578 0,-20.37109 13.39844,-33.63281 13.46679,-13.26172 34.3164,-13.26172 8.47656,0 15.92774,0.88867 7.51953,0.82031 14.01367,2.5293 z m 16.95312,41.69922 q 0,-8.47657 3.28125,-17.02149 2.39258,-6.15234 6.69922,-11.2793 4.30664,-5.12695 10.80078,-9.09179 6.49414,-4.03321 13.26172,-5.74219 6.76758,-1.77734 15.10742,-1.77734 14.21875,0 24.67774,5.33203 10.45898,5.33203 16.47461,14.42383 7.79297,11.82617 7.79297,24.81445 0,19.3457 -13.19336,33.1543 -13.125,13.80859 -36.57227,13.80859 -5.81055,0 -10.86914,-0.75195 -3.82812,-0.54688 -6.69922,-1.50391 -5.19531,-1.70898 -5.81055,-1.98242 -7.45117,-4.23828 -11.96289,-8.68164 -4.51171,-4.44336 -7.65625,-10.04883 -1.70898,-3.14453 -3.89648,-11.34766 -1.43555,-5.26367 -1.43555,-12.30468 z m 46.55274,-38.14454 q -5.94727,0 -10.52735,2.80274 -4.58007,2.73437 -6.90429,6.08398 -3.89649,5.67383 -5.53711,12.44141 -1.64063,6.69922 -1.64063,16.33789 0,5.87891 0.47852,8.4082 0.13672,0.82032 0.41015,2.80274 0.61524,5.05859 1.43555,7.38281 2.93945,8.68164 4.16992,10.73242 2.05078,3.48633 6.08399,6.9043 2.05078,1.77734 5.94726,3.28125 3.89649,1.43555 7.79297,1.43555 7.38281,0 13.67188,-3.41797 6.35742,-3.48633 10.18554,-11.75782 3.82813,-8.27148 3.82813,-21.5332 0,-5.46875 -0.75195,-14.83398 l -0.3418,-1.29883 q -0.20508,-0.54688 -0.6836,-2.80274 -2.52929,-11.21093 -9.70703,-17.08984 -7.10937,-5.87891 -17.91015,-5.87891 z m 52.63672,0.20508 v -5.8789 q 3.55468,0.0684 4.30664,0.13671 8.4082,0.95704 22.08007,0.95704 2.05079,0 8.33985,-0.41016 4.51172,-0.3418 6.76758,-0.68359 h 4.99023 q 0.13672,4.99023 0.13672,5.60546 -6.83594,0.88868 -7.99805,1.16211 -3.00781,0.82032 -4.44336,2.1875 -0.75195,0.75196 -0.75195,1.77735 0,0.75195 0.13672,1.5039 l 2.25586,5.94727 q 2.39258,6.97266 7.92969,18.93555 l 7.79296,17.63672 q 2.25586,5.12695 4.10157,9.70703 l 3.96484,-9.70703 8.13477,-22.5586 1.91406,-4.78515 q 0.3418,-1.0254 0.88867,-2.8711 1.77734,-6.08398 2.93945,-9.22851 1.23047,-3.14454 1.23047,-5.12696 0,-1.29883 -1.29883,-2.25586 -1.98242,-1.5039 -6.49414,-1.91406 -0.95703,-0.27344 -2.52929,-0.41016 -1.57227,-0.20507 -2.80274,-0.47851 -0.41015,-1.36719 -0.41015,-2.05078 0,-0.88867 0.27343,-3.14453 1.23047,0 7.04102,0.54687 5.81055,0.54688 11.34766,0.54688 5.67382,0 9.70703,-0.47852 4.0332,-0.54687 6.5625,-0.61523 v 2.1875 q 0,0.82031 -0.0684,2.46093 -8.81836,3.21289 -10.32227,4.375 -0.95703,0.6836 -1.8457,2.25586 -2.59766,4.58008 -7.92969,18.52539 l -8.75,22.62696 q -1.23047,3.28125 -2.73437,6.97265 -1.43555,3.62305 -3.07618,7.99805 -0.34179,1.02539 -3.21289,8.20313 l -0.68359,1.23046 q -3.00781,9.63868 -4.51172,13.33008 -2.73437,0.13672 -3.41797,0.13672 -1.29883,0 -3.62304,-0.13672 -0.75196,-2.05078 -1.50391,-4.16992 -0.75195,-2.11914 -5.81055,-14.83398 l -12.91992,-28.98438 -7.72461,-18.66211 q -5.94726,-12.71484 -6.49414,-13.60351 -1.16211,-1.70899 -2.59766,-2.46094 -1.43554,-0.75195 -5.94726,-1.16211 z m 100.48828,83.33008 v -4.92187 q 1.36718,-0.41016 4.51172,-1.16211 4.44336,-1.09375 6.63086,-2.25586 1.23046,-2.11914 1.23046,-5.87891 l -0.0684,-8.06641 0.13672,-15.58593 -0.0684,-3.69141 q 0.47852,-13.53516 0.47852,-13.94531 l -0.13672,-9.0918 0.20508,-3.69141 -0.3418,-7.79296 -0.0684,-2.93946 q -0.0684,-0.68359 -0.47851,-2.1875 -2.80274,-1.29883 -9.0918,-1.64062 -1.50391,-0.0684 -2.39258,-0.20508 l -0.20508,-6.01563 19.55079,0.82032 q 3.62304,0.13672 4.51171,0.13672 4.03321,0 12.91993,-0.54688 4.99023,-0.3418 6.28906,-0.41016 0.0684,1.29883 0.0684,2.1875 0,1.16211 -0.13672,3.00782 -2.73438,0.95703 -6.28906,1.8457 -3.48633,0.82031 -5.74219,1.70898 -0.41016,1.77735 -0.41016,5.12696 0,2.93945 0.20508,4.78515 -0.20508,11.55274 -0.20508,17.77344 l 0.0684,18.04688 -0.20508,9.16015 0.13672,13.67188 -0.0684,2.59765 q 0,0.54688 0.27344,1.57227 4.16992,0.88867 7.58789,1.23047 0.61524,0.0684 4.16992,0.54687 0.27344,2.05078 0.27344,3.41797 0,0.75196 -0.0684,2.32422 -0.88867,0 -1.36719,0.0684 -2.1875,0.13672 -2.52929,0.13672 -0.47852,0 -1.77735,-0.20508 -0.95703,-0.13672 -9.09179,-0.95703 l -12.09961,-0.13672 q -3.62305,0 -10.52735,0.68359 -4.51172,0.41016 -5.8789,0.47852 z"
       id="text4"
       inkscape:label="SICOVI"
       aria-label="SICOVI" /></g></svg>
