<?xml version="1.0" encoding="UTF-8" standalone="no"?>
<!-- Created with Inkscape (http://www.inkscape.org/) -->

<svg
   version="1.1"
   id="svg1"
   width="475"
   height="276"
   viewBox="0 0 475 276"
   sodipodi:docname="logo.svg"
   xml:space="preserve"
   inkscape:version="1.4 (86a8ad7, 2024-10-11)"
   xmlns:inkscape="http://www.inkscape.org/namespaces/inkscape"
   xmlns:sodipodi="http://sodipodi.sourceforge.net/DTD/sodipodi-0.dtd"
   xmlns="http://www.w3.org/2000/svg"
   xmlns:svg="http://www.w3.org/2000/svg"><defs
     id="defs1"><inkscape:perspective
       sodipodi:type="inkscape:persp3d"
       inkscape:vp_x="0 : 126 : 1"
       inkscape:vp_y="0 : 1000 : 0"
       inkscape:vp_z="475 : 126 : 1"
       inkscape:persp3d-origin="237.5 : 76 : 1"
       id="perspective19" /></defs><sodipodi:namedview
     id="namedview1"
     pagecolor="#ffffff"
     bordercolor="#000000"
     borderopacity="0.25"
     inkscape:showpageshadow="2"
     inkscape:pageopacity="0.0"
     inkscape:pagecheckerboard="0"
     inkscape:deskcolor="#d1d1d1"
     showgrid="false"
     inkscape:zoom="1.9531249"
     inkscape:cx="172.288"
     inkscape:cy="111.872"
     inkscape:window-width="3440"
     inkscape:window-height="1417"
     inkscape:window-x="-8"
     inkscape:window-y="-8"
     inkscape:window-maximized="1"
     inkscape:current-layer="g1"><inkscape:grid
       id="grid4"
       units="px"
       originx="0"
       originy="0"
       spacingx="1"
       spacingy="1"
       empcolor="#0099e5"
       empopacity="0.30196078"
       color="#0099e5"
       opacity="0.14901961"
       empspacing="5"
       enabled="true"
       visible="false" /></sodipodi:namedview><g
     inkscape:groupmode="layer"
     inkscape:label="Logo"
     id="g1"><path
       style="fill:#d09f48"
       d="m 161.511,133.99874 0.053,-14.03778 c 11.48308,6.21148 57.6067,27.48248 57.67632,27.41027 0.30614,-4.93361 -0.28638,-16.16919 -0.13172,-21.11084 l -57.45954,-26.32016 -0.0134,-54.942254 c 4.64204,2.365082 72.79017,35.212044 72.79017,35.212044 l -0.0244,14.98281 c 0,0 -59.17784,-28.110486 -62.54782,-29.564074 l 0.256,21.494004 62.3245,28.02359 0.0154,55.65435 z m 93.43611,-60.984401 26.32746,61.683451 9.35413,-4.22734 8.90471,-80.622319 13.95559,-6.149354 -12.7193,96.717433 -27.07351,13.40672 -33.34662,-73.87406 z M 165.43208,38.286966 236.26059,5.088929 c 0,0 72.59057,33.208006 72.75519,33.374834 0.21943,0.222391 -26.97191,13.584928 -26.97191,13.584928 l -14.45261,-8.201166 14.44267,-6.369203 c 0,0 -45.27144,-21.340592 -45.51235,-21.340592 -0.69807,0 -45.52308,21.934788 -45.29287,22.156688 13.50799,6.735902 43.95159,22.066764 43.95159,22.066764 l 13.78062,-6.699516 13.99196,7.773049 -26.32441,13.642305 z"
       id="path3"
       sodipodi:nodetypes="cccccccccccccscccccccsccccccccccccc" /></g><g
     inkscape:groupmode="layer"
     id="layer1"
     inkscape:label="Nombre"><text
       xml:space="preserve"
       style="font-size:140px;text-align:start;writing-mode:lr-tb;direction:ltr;text-anchor:start;fill:#000000"
       x="-1.5869141"
       y="269.37598"
       id="text4"
       inkscape:label="SICOVI"><tspan
         id="tspan4"
         x="-1.5869141"
         y="269.37598"
         sodipodi:role="line"
         style="font-style:normal;font-variant:normal;font-weight:bold;font-stretch:normal;font-size:140px;font-family:Garamond;-inkscape-font-specification:'Garamond Bold';fill:#26344e;fill-opacity:1">SICOVI</tspan></text></g></svg>
