<?xml version="1.0" encoding="UTF-8" standalone="no"?>
<!-- Created with Inkscape (http://www.inkscape.org/) -->

<svg
   version="1.1"
   id="svg1"
   width="475"
   height="100"
   viewBox="0 0 475 100"
   sodipodi:docname="logo_nombre.svg"
   xml:space="preserve"
   inkscape:version="1.4 (86a8ad7, 2024-10-11)"
   xmlns:inkscape="http://www.inkscape.org/namespaces/inkscape"
   xmlns:sodipodi="http://sodipodi.sourceforge.net/DTD/sodipodi-0.dtd"
   xmlns="http://www.w3.org/2000/svg"
   xmlns:svg="http://www.w3.org/2000/svg"><defs
     id="defs1"><inkscape:perspective
       sodipodi:type="inkscape:persp3d"
       inkscape:vp_x="0 : -49 : 1"
       inkscape:vp_y="0 : 1000 : 0"
       inkscape:vp_z="475 : -49 : 1"
       inkscape:persp3d-origin="237.5 : -99 : 1"
       id="perspective19" /></defs><sodipodi:namedview
     id="namedview1"
     pagecolor="#ffffff"
     bordercolor="#000000"
     borderopacity="0.25"
     inkscape:showpageshadow="2"
     inkscape:pageopacity="0.0"
     inkscape:pagecheckerboard="0"
     inkscape:deskcolor="#d1d1d1"
     showgrid="true"
     inkscape:zoom="3.9062499"
     inkscape:cx="276.60801"
     inkscape:cy="67.968002"
     inkscape:window-width="3440"
     inkscape:window-height="1417"
     inkscape:window-x="-8"
     inkscape:window-y="-8"
     inkscape:window-maximized="1"
     inkscape:current-layer="layer1"><inkscape:grid
       id="grid4"
       units="px"
       originx="0"
       originy="0"
       spacingx="1"
       spacingy="1"
       empcolor="#0099e5"
       empopacity="0.30196078"
       color="#0099e5"
       opacity="0.14901961"
       empspacing="5"
       enabled="true"
       visible="true" /></sodipodi:namedview><g
     inkscape:groupmode="layer"
     inkscape:label="Logo"
     id="g1"
     style="display:none"><path
       style="display:none;fill:#d09f48"
       d="m 3.4811153,132.55058 0.053,-14.03778 c 11.4830807,6.21148 57.6067007,27.48248 57.6763207,27.41027 0.30614,-4.93361 -0.28638,-16.16919 -0.13172,-21.11084 L 3.6191753,98.492076 3.6057753,43.549822 C 8.2478156,45.914904 76.395946,78.761866 76.395946,78.761866 l -0.0244,14.98281 c 0,0 -59.17784,-28.110486 -62.54782,-29.564074 l 0.256,21.494004 62.3245,28.023584 0.0154,55.65435 z m 93.4361107,-60.984395 26.327464,61.683445 9.35413,-4.22734 8.90471,-80.622313 13.95559,-6.149354 -12.7193,96.717427 -27.07351,13.40672 L 82.319686,78.500716 Z M 7.4021953,36.838812 78.230706,3.6407744 c 0,0 72.590574,33.2080066 72.755194,33.3748346 0.21943,0.222391 -26.97191,13.584928 -26.97191,13.584928 l -14.45261,-8.201166 14.44267,-6.369203 c 0,0 -45.271444,-21.340592 -45.512354,-21.340592 -0.69807,0 -45.52308,21.934788 -45.29287,22.156688 13.50799,6.735902 43.95159,22.066764 43.95159,22.066764 L 90.931036,52.213512 104.923,59.986561 78.598586,73.628866 Z"
       id="path3"
       sodipodi:nodetypes="cccccccccccccscccccccsccccccccccccc" /></g><g
     inkscape:groupmode="layer"
     id="layer1"
     inkscape:label="Nombre"><text
       xml:space="preserve"
       style="font-size:140px;text-align:start;writing-mode:lr-tb;direction:ltr;text-anchor:start;display:inline;fill:#000000"
       x="-1.5869141"
       y="95.807968"
       id="text4"
       inkscape:label="SICOVI"><tspan
         id="tspan4"
         x="-1.5869141"
         y="95.807968"
         sodipodi:role="line"
         style="font-style:normal;font-variant:normal;font-weight:bold;font-stretch:normal;font-size:140px;font-family:Garamond;-inkscape-font-specification:'Garamond Bold';fill:#26344e;fill-opacity:1">SICOVI</tspan></text></g></svg>
